<svg version="1.1" id="Layer_1" xmlns="http://www.w3.org/2000/svg" xmlns:xlink="http://www.w3.org/1999/xlink" x="0px" y="0px"
	 width="100%" viewBox="0 0 237 70" enable-background="new 0 0 237 70" xml:space="preserve">

<path fill="#ff9c35" opacity="1.000000" stroke="none" 
	d="
M19.237726,51.513123 
	C17.645298,50.780830 15.169442,49.691399 15.236424,48.791168 
	C15.653279,43.188690 16.532896,37.608978 17.548811,32.074905 
	C17.707161,31.212301 19.348190,30.621880 20.303604,29.905596 
	C21.046696,31.391308 21.789787,32.877018 22.619610,34.536140 
	C23.170839,33.808136 23.672571,32.637714 24.559042,32.090122 
	C25.998518,31.200924 27.690004,30.719694 29.275112,30.066252 
	C29.637272,31.536007 30.096022,32.991089 30.322474,34.481461 
	C30.442911,35.274105 29.890881,36.215237 30.123249,36.933849 
	C30.482847,38.045925 31.254089,39.024895 31.850775,40.060307 
	C32.813908,39.360867 34.032448,38.842693 34.685196,37.922970 
	C35.914719,36.190575 36.545261,33.990128 37.915592,32.409832 
	C40.515419,29.411642 45.244892,29.041162 47.796551,31.285753 
	C50.585976,33.739498 50.417278,37.563465 47.247971,40.995434 
	C46.360794,41.956139 45.231853,42.714005 44.143475,43.462650 
	C43.084217,44.191273 41.934834,44.788860 40.690102,45.523628 
	C45.200317,48.074409 52.026928,45.341759 53.091805,40.803455 
	C53.660362,38.380383 53.787056,35.788689 54.749226,33.545982 
	C55.380146,32.075390 57.148750,31.092886 58.407825,29.891787 
	C58.777870,31.565226 59.205585,33.229130 59.484825,34.917587 
	C59.575321,35.464752 59.276733,36.076271 60.035534,37.191154 
	C60.850311,36.146267 61.518719,34.926491 62.512150,34.095070 
	C64.260040,32.632225 66.206604,31.406755 68.069977,30.081884 
	C68.505592,32.224178 68.941200,34.366470 69.478210,37.007401 
	C70.440918,35.717823 71.426682,33.968925 72.823036,32.657070 
	C74.026138,31.526768 75.697090,30.894442 77.161186,30.041943 
	C77.701500,31.601974 78.714783,33.170135 78.688133,34.720421 
	C78.623695,38.469154 78.074074,42.209553 77.720039,45.953308 
	C78.314407,46.238819 78.908775,46.524326 79.503143,46.809834 
	C80.530769,45.409691 82.275002,44.102901 82.471504,42.594486 
	C83.912277,31.534477 87.846260,28.535374 98.102432,30.382093 
	C99.657661,28.974903 100.910721,26.947559 101.968468,27.044796 
	C105.755905,27.392973 106.629311,25.435129 107.518608,22.353714 
	C108.471085,19.053343 110.034653,15.839400 111.866806,12.924155 
	C112.674911,11.638316 115.156914,10.197164 116.249146,10.587754 
	C117.784485,11.136799 119.472885,13.198712 119.755211,14.843714 
	C120.152161,17.156641 119.510963,19.726089 118.947884,22.099024 
	C118.544594,23.798506 117.541656,25.355696 116.560516,27.517954 
	C118.629066,27.637892 120.249084,27.573572 121.791649,27.888575 
	C122.553482,28.044146 123.172401,28.899584 123.855988,29.438347 
	C123.179085,30.019665 122.583290,30.898678 121.805733,31.110523 
	C120.717667,31.406967 119.486694,31.296038 118.329987,31.200512 
	C115.356300,30.954937 112.027832,31.105139 111.389099,34.407780 
	C110.688995,38.027721 111.182182,41.914288 111.512108,45.653191 
	C111.554375,46.132130 114.138321,47.100746 114.863800,46.676888 
	C117.450188,45.165806 120.192627,43.508530 122.008888,41.218788 
	C123.559174,39.264351 123.626152,36.205402 124.873245,33.921093 
	C126.635239,30.693624 129.749771,29.069275 133.296051,30.186121 
	C135.050583,30.738684 137.701630,33.059460 137.526489,34.212536 
	C137.093979,37.059910 135.579987,39.917755 133.877945,42.332397 
	C132.847198,43.794670 130.655075,44.438286 128.220642,45.912365 
	C134.626221,48.727299 138.070694,44.227047 142.424332,41.943569 
	C143.273468,42.748756 144.174011,43.602688 144.992065,44.378391 
	C142.663742,51.846584 129.431351,53.865555 122.704292,47.842728 
	C121.179047,48.655338 119.599144,49.538784 117.983315,50.350708 
	C111.070992,53.824005 107.561356,52.076725 105.904358,44.361351 
	C104.650513,38.523132 104.650513,38.523132 99.654625,36.103439 
	C99.806877,42.251614 99.893311,48.685204 93.242928,51.299507 
	C90.685745,52.304749 87.227982,51.019081 84.226151,50.127396 
	C75.009338,53.753792 73.618736,53.250675 72.388023,43.733128 
	C70.935219,45.902363 70.204697,47.304935 69.179764,48.442173 
	C67.979988,49.773426 66.523758,50.873554 65.178772,52.073944 
	C64.471283,50.409443 63.543484,48.798054 63.125389,47.063789 
	C62.785389,45.653488 63.056309,44.095905 62.152077,42.206757 
	C61.065796,44.429398 60.027493,46.677082 58.883072,48.869373 
	C56.617641,53.209103 55.425087,53.298832 52.297562,49.452663 
	C41.048393,53.803646 38.043274,53.139378 34.022930,45.413136 
	C28.119539,45.464504 28.119539,45.464504 24.498890,38.781925 
	C22.804556,43.030979 21.167171,47.137211 19.237726,51.513123 
M94.470955,43.459766 
	C94.879189,40.223946 96.934677,36.315849 92.386925,34.833668 
	C91.756020,34.628052 88.963142,39.555153 88.048218,42.389294 
	C87.625137,43.699841 89.313087,45.691879 90.043938,47.374947 
	C91.424454,46.318260 92.804970,45.261574 94.470955,43.459766 
M128.188202,38.021107 
	C128.188202,39.007744 128.188202,39.994381 128.188202,40.981018 
	C128.632080,41.189377 129.075958,41.397739 129.519836,41.606102 
	C130.910965,39.856361 132.367920,38.150909 133.611649,36.302017 
	C133.770905,36.065292 132.820175,35.081905 132.383667,34.444408 
	C131.083160,35.402744 129.782669,36.361084 128.188202,38.021107 
M113.395569,17.795794 
	C112.541824,20.715445 111.688080,23.635094 110.834335,26.554745 
	C111.398216,26.735435 111.962105,26.916124 112.525993,27.096815 
	C113.768921,24.172155 115.294319,21.328047 116.159073,18.295546 
	C116.772804,16.143303 115.869003,14.980992 113.395569,17.795794 
M41.075493,35.824249 
	C40.606819,37.431648 40.138142,39.039047 39.669468,40.646446 
	C41.879292,40.470936 43.410606,39.827099 44.308704,38.685223 
	C44.967091,37.848125 44.794571,36.357517 44.992374,35.158173 
	C43.855541,35.182575 42.718704,35.206978 41.075493,35.824249 
M99.755699,31.215395 
	C100.126297,31.294197 100.496902,31.372999 100.867500,31.451801 
	C100.898460,31.165150 100.996552,30.641605 100.950035,30.628422 
	C100.474823,30.493771 99.976120,30.442078 99.755699,31.215395 
M99.509949,36.002602 
	C99.575424,35.812859 99.640900,35.623116 99.706375,35.433372 
	C99.511719,35.495918 99.317070,35.558468 99.509949,36.002602 
z"/>
<path fill="#ff9c35" opacity="1.000000" stroke="none" 
	d="
M198.655640,48.513603 
	C193.043747,53.596020 186.205673,54.274807 181.176147,50.528225 
	C176.648727,47.155670 175.124023,38.491840 178.036743,32.689140 
	C180.640198,27.502535 186.743942,25.183596 193.008347,27.001104 
	C200.983185,29.314867 203.710739,39.149887 198.655640,48.513603 
M183.284500,39.583534 
	C183.478638,41.053368 183.182190,42.917290 183.975967,43.905399 
	C185.341827,45.605637 187.324631,47.725693 189.166321,47.844585 
	C190.696686,47.943382 193.325806,45.685295 193.809433,43.996281 
	C194.589890,41.270622 194.584702,37.985600 193.789352,35.264832 
	C193.288483,33.551498 190.780930,31.407898 189.101974,31.344185 
	C187.450073,31.281496 185.479736,33.398129 184.096512,34.955776 
	C183.347778,35.798939 183.533035,37.471508 183.284500,39.583534 
z"/>
<path fill="#ff9c35" opacity="1.000000" stroke="none" 
	d="
M222.619202,27.236229 
	C225.306046,28.828716 224.890533,30.504845 223.362900,32.304592 
	C221.646103,34.327221 219.960861,36.376644 218.042313,38.677776 
	C220.148590,41.402809 222.450333,44.009682 224.265289,46.920116 
	C224.945969,48.011650 224.494904,49.808929 224.559845,51.284439 
	C222.966064,51.068367 220.767822,51.435062 219.892059,50.526726 
	C217.284363,47.822033 215.196213,44.616421 212.013519,40.435272 
	C212.013519,43.724045 212.412659,45.862953 211.891525,47.747353 
	C211.447403,49.353237 209.944565,50.666325 208.910095,52.108948 
	C207.740936,50.790569 205.659378,49.535496 205.562744,48.142700 
	C205.172943,42.524887 205.169128,36.849339 205.546890,31.230350 
	C205.644913,29.772182 207.643829,28.441807 208.769623,27.052731 
	C209.850235,28.477390 211.313019,29.762630 211.898651,31.367876 
	C212.431488,32.828430 212.011459,34.636608 212.011459,36.450909 
	C215.546066,33.236012 218.914963,30.171825 222.619202,27.236229 
z"/>
<path fill="#ff9c35" opacity="1.000000" stroke="none" 
	d="
M159.201935,41.999924 
	C159.201935,49.436874 159.201935,56.373882 159.201935,63.310890 
	C158.515640,63.311874 157.829330,63.312862 157.143036,63.313847 
	C157.060883,45.672161 157.122803,28.028839 157.101089,10.386466 
	C157.801376,10.355194 158.501648,10.323922 159.201935,10.292649 
	C159.201935,15.374972 159.201935,20.457294 159.201935,25.539618 
	C159.201935,30.859739 159.201935,36.179859 159.201935,41.999924 
z"/>



<path fill="#ff9c35" opacity="1.000000" stroke="none" 
	d="
M99.619843,30.791294 
	C99.976120,30.442078 100.474823,30.493771 100.950035,30.628422 
	C100.996552,30.641605 100.898460,31.165150 100.867500,31.451801 
	C100.496902,31.372999 100.126297,31.294197 99.619843,30.791294 
z"/>
<path fill="#ff9c35" opacity="1.000000" stroke="none" 
	d="
M99.316177,35.811810 
	C99.317070,35.558468 99.511719,35.495918 99.706375,35.433372 
	C99.640900,35.623116 99.575424,35.812859 99.316177,35.811810 
z"/>

</svg>